<mxfile host="app.diagrams.net" modified="2020-08-06T01:48:26.990Z" agent="5.0 (Windows NT 10.0; Win64; x64) AppleWebKit/537.36 (KHTML, like Gecko) Chrome/84.0.4147.105 Safari/537.36" etag="evvZ_cz7OiCqmUIbX0eW" version="13.6.0" type="github">
  <diagram id="lPIrvB9kX_BudlJqQ6Pe" name="Page-1">
    <mxGraphModel dx="782" dy="437" grid="1" gridSize="10" guides="1" tooltips="1" connect="1" arrows="1" fold="1" page="1" pageScale="1" pageWidth="827" pageHeight="1169" math="0" shadow="0">
      <root>
        <mxCell id="0" />
        <mxCell id="1" parent="0" />
        <mxCell id="wq8R_gEjj3_pjFv2Qplw-8" value="" style="rounded=0;whiteSpace=wrap;html=1;fillColor=#fff2cc;strokeColor=#d6b656;" vertex="1" parent="1">
          <mxGeometry x="210" y="90" width="390" height="260" as="geometry" />
        </mxCell>
        <mxCell id="wq8R_gEjj3_pjFv2Qplw-21" style="edgeStyle=none;rounded=0;orthogonalLoop=1;jettySize=auto;html=1;exitX=1;exitY=0.5;exitDx=0;exitDy=0;entryX=0;entryY=0.5;entryDx=0;entryDy=0;" edge="1" parent="1" source="wq8R_gEjj3_pjFv2Qplw-2" target="wq8R_gEjj3_pjFv2Qplw-9">
          <mxGeometry relative="1" as="geometry" />
        </mxCell>
        <mxCell id="wq8R_gEjj3_pjFv2Qplw-2" value="FlutterJNI" style="rounded=1;whiteSpace=wrap;html=1;" vertex="1" parent="1">
          <mxGeometry x="450" y="200" width="100" height="40" as="geometry" />
        </mxCell>
        <mxCell id="wq8R_gEjj3_pjFv2Qplw-19" style="edgeStyle=none;rounded=0;orthogonalLoop=1;jettySize=auto;html=1;exitX=1;exitY=0.5;exitDx=0;exitDy=0;" edge="1" parent="1" source="wq8R_gEjj3_pjFv2Qplw-3">
          <mxGeometry relative="1" as="geometry">
            <mxPoint x="450" y="220" as="targetPoint" />
          </mxGeometry>
        </mxCell>
        <mxCell id="wq8R_gEjj3_pjFv2Qplw-3" value="SystemChannels" style="rounded=1;whiteSpace=wrap;html=1;" vertex="1" parent="1">
          <mxGeometry x="250" y="230" width="140" height="40" as="geometry" />
        </mxCell>
        <mxCell id="wq8R_gEjj3_pjFv2Qplw-17" style="edgeStyle=none;rounded=0;orthogonalLoop=1;jettySize=auto;html=1;exitX=1;exitY=0.5;exitDx=0;exitDy=0;entryX=0;entryY=0.5;entryDx=0;entryDy=0;" edge="1" parent="1" source="wq8R_gEjj3_pjFv2Qplw-4" target="wq8R_gEjj3_pjFv2Qplw-2">
          <mxGeometry relative="1" as="geometry" />
        </mxCell>
        <mxCell id="wq8R_gEjj3_pjFv2Qplw-4" value="DartExecutor" style="rounded=1;whiteSpace=wrap;html=1;" vertex="1" parent="1">
          <mxGeometry x="250" y="130" width="140" height="40" as="geometry" />
        </mxCell>
        <mxCell id="wq8R_gEjj3_pjFv2Qplw-20" style="edgeStyle=none;rounded=0;orthogonalLoop=1;jettySize=auto;html=1;exitX=1;exitY=0.5;exitDx=0;exitDy=0;" edge="1" parent="1" source="wq8R_gEjj3_pjFv2Qplw-5">
          <mxGeometry relative="1" as="geometry">
            <mxPoint x="450" y="220" as="targetPoint" />
          </mxGeometry>
        </mxCell>
        <mxCell id="wq8R_gEjj3_pjFv2Qplw-5" value="PlatformViewsController" style="rounded=1;whiteSpace=wrap;html=1;" vertex="1" parent="1">
          <mxGeometry x="250" y="280" width="140" height="40" as="geometry" />
        </mxCell>
        <mxCell id="wq8R_gEjj3_pjFv2Qplw-18" style="edgeStyle=none;rounded=0;orthogonalLoop=1;jettySize=auto;html=1;exitX=1;exitY=0.75;exitDx=0;exitDy=0;" edge="1" parent="1" source="wq8R_gEjj3_pjFv2Qplw-6">
          <mxGeometry relative="1" as="geometry">
            <mxPoint x="450" y="220" as="targetPoint" />
          </mxGeometry>
        </mxCell>
        <mxCell id="wq8R_gEjj3_pjFv2Qplw-6" value="FlutterRenderer" style="rounded=1;whiteSpace=wrap;html=1;" vertex="1" parent="1">
          <mxGeometry x="250" y="180" width="140" height="40" as="geometry" />
        </mxCell>
        <mxCell id="wq8R_gEjj3_pjFv2Qplw-9" value="Flutter C++ Engine" style="rounded=1;whiteSpace=wrap;html=1;fillColor=#f8cecc;strokeColor=#b85450;" vertex="1" parent="1">
          <mxGeometry x="640" y="190" width="120" height="60" as="geometry" />
        </mxCell>
        <mxCell id="wq8R_gEjj3_pjFv2Qplw-11" style="rounded=0;orthogonalLoop=1;jettySize=auto;html=1;exitX=1;exitY=0.5;exitDx=0;exitDy=0;entryX=0;entryY=0.5;entryDx=0;entryDy=0;" edge="1" parent="1" source="wq8R_gEjj3_pjFv2Qplw-10" target="wq8R_gEjj3_pjFv2Qplw-4">
          <mxGeometry relative="1" as="geometry" />
        </mxCell>
        <mxCell id="wq8R_gEjj3_pjFv2Qplw-12" style="edgeStyle=none;rounded=0;orthogonalLoop=1;jettySize=auto;html=1;exitX=1;exitY=0.5;exitDx=0;exitDy=0;entryX=0;entryY=0.5;entryDx=0;entryDy=0;" edge="1" parent="1" source="wq8R_gEjj3_pjFv2Qplw-10" target="wq8R_gEjj3_pjFv2Qplw-6">
          <mxGeometry relative="1" as="geometry" />
        </mxCell>
        <mxCell id="wq8R_gEjj3_pjFv2Qplw-13" style="edgeStyle=none;rounded=0;orthogonalLoop=1;jettySize=auto;html=1;exitX=1;exitY=0.5;exitDx=0;exitDy=0;entryX=0;entryY=0.5;entryDx=0;entryDy=0;" edge="1" parent="1" source="wq8R_gEjj3_pjFv2Qplw-10" target="wq8R_gEjj3_pjFv2Qplw-3">
          <mxGeometry relative="1" as="geometry" />
        </mxCell>
        <mxCell id="wq8R_gEjj3_pjFv2Qplw-16" style="edgeStyle=none;rounded=0;orthogonalLoop=1;jettySize=auto;html=1;exitX=1;exitY=0.5;exitDx=0;exitDy=0;entryX=0;entryY=0.5;entryDx=0;entryDy=0;" edge="1" parent="1" source="wq8R_gEjj3_pjFv2Qplw-10" target="wq8R_gEjj3_pjFv2Qplw-5">
          <mxGeometry relative="1" as="geometry" />
        </mxCell>
        <mxCell id="wq8R_gEjj3_pjFv2Qplw-10" value="Android Platform" style="rounded=1;whiteSpace=wrap;html=1;fillColor=#d5e8d4;strokeColor=#82b366;" vertex="1" parent="1">
          <mxGeometry x="40" y="200" width="120" height="60" as="geometry" />
        </mxCell>
        <mxCell id="wq8R_gEjj3_pjFv2Qplw-22" value="FlutterEngine" style="text;html=1;strokeColor=none;fillColor=none;align=center;verticalAlign=middle;whiteSpace=wrap;rounded=0;" vertex="1" parent="1">
          <mxGeometry x="450" y="110" width="80" height="20" as="geometry" />
        </mxCell>
      </root>
    </mxGraphModel>
  </diagram>
</mxfile>
